<svg id="레이어_1" data-name="레이어 1" xmlns="http://www.w3.org/2000/svg" xmlns:xlink="http://www.w3.org/1999/xlink" viewBox="0 0 595.28 841.89"><defs><style>.cls-1,.cls-16,.cls-17,.cls-25{fill:none;}.cls-1{stroke:#849fb3;}.cls-1,.cls-12,.cls-16,.cls-17,.cls-25{stroke-miterlimit:10;}.cls-2,.cls-41{fill:#15375c;}.cls-3{font-size:30px;letter-spacing:-0.04em;}.cls-22,.cls-3,.cls-38,.cls-40{fill:#231815;}.cls-15,.cls-18,.cls-20,.cls-21,.cls-22,.cls-27,.cls-3,.cls-38,.cls-4,.cls-43{font-family:Pretendard-SemiBold-KSCpc-EUC-H, Pretendard;}.cls-20,.cls-38,.cls-4,.cls-41{font-size:12px;}.cls-10,.cls-14,.cls-15,.cls-27,.cls-4,.cls-46,.cls-47,.cls-7{fill:#070002;}.cls-19,.cls-20,.cls-21,.cls-4,.cls-43{letter-spacing:-0.03em;}.cls-5{fill:#e4e7e7;}.cls-6{fill:#d3d4d4;}.cls-10,.cls-13,.cls-7{font-size:7px;}.cls-14,.cls-19,.cls-46,.cls-7{font-family:Pretendard-Light-KSCpc-EUC-H, Pretendard;}.cls-11,.cls-7{letter-spacing:-0.03em;}.cls-13,.cls-8{letter-spacing:-0.03em;}.cls-12,.cls-18,.cls-19,.cls-20,.cls-21,.cls-9{fill:#fff;}.cls-10{font-family:Pretendard-Bold-KSCpc-EUC-H, Pretendard;letter-spacing:0.01em;}.cls-12{stroke:#9fa0a0;}.cls-13{fill:#727171;font-family:SUIT-Light, SUIT Light;font-weight:300;}.cls-14,.cls-46{font-size:10px;}.cls-14{letter-spacing:-0.03em;}.cls-15,.cls-22,.cls-27{font-size:11.55px;}.cls-15{letter-spacing:-0.03em;}.cls-16,.cls-17{stroke:#fff;}.cls-16,.cls-17,.cls-25{stroke-width:0.5px;}.cls-17{stroke-dasharray:1.91 1.91;}.cls-18,.cls-21{font-size:27px;}.cls-18{letter-spacing:-0.03em;}.cls-19,.cls-36,.cls-37,.cls-44{font-size:9px;}.cls-22,.cls-27{letter-spacing:-0.03em;}.cls-23,.cls-28,.cls-32{font-size:8px;}.cls-23,.cls-28,.cls-32,.cls-36,.cls-37,.cls-44{fill:#3e3a39;}.cls-23,.cls-28,.cls-32,.cls-44{font-family:Pretendard-ExtraLight-KSCpc-EUC-H, Pretendard;}.cls-23,.cls-30{letter-spacing:-0.03em;}.cls-24,.cls-26,.cls-31,.cls-33,.cls-34,.cls-35{opacity:0.35;}.cls-24{fill:url(#gradient_khong_ten_20);}.cls-25{stroke:#2b2b2b;}.cls-26{fill:url(#gradient_khong_ten_20-2);}.cls-28{letter-spacing:-0.07em;}.cls-29{letter-spacing:-0.03em;}.cls-31{fill:url(#gradient_khong_ten_20-3);}.cls-32{letter-spacing:-0.05em;}.cls-33{fill:url(#gradient_khong_ten_20-4);}.cls-34{fill:url(#gradient_khong_ten_20-5);}.cls-35{fill:url(#gradient_khong_ten_20-6);}.cls-36,.cls-37{font-family:Pretendard-Medium-KSCpc-EUC-H, Pretendard;}.cls-36{letter-spacing:-0.04em;}.cls-37{letter-spacing:-0.04em;}.cls-38{letter-spacing:-0.03em;}.cls-39,.cls-41{letter-spacing:-0.04em;}.cls-41{font-family:Pretendard-ExtraBold-KSCpc-EUC-H, Pretendard;}.cls-42{fill:#efefef;}.cls-43{font-size:15px;fill:#9fa0a0;}.cls-44{letter-spacing:-0.05em;}.cls-45{fill:#f0f3f7;}.cls-46{letter-spacing:-0.03em;}.cls-47{font-size:14px;font-family:Pretendard-Black-KSCpc-EUC-H, Pretendard;letter-spacing:-0.03em;}</style><linearGradient id="gradient_khong_ten_20" x1="222.64" y1="309.99" x2="222.64" y2="276.2" gradientUnits="userSpaceOnUse"><stop offset="0" stop-color="#e4e9ef"/><stop offset="0.13" stop-color="#c2ceda"/><stop offset="0.33" stop-color="#97adc1"/><stop offset="0.52" stop-color="#7693ac"/><stop offset="0.7" stop-color="#5e809e"/><stop offset="0.86" stop-color="#4f7595"/><stop offset="1" stop-color="#4a7192"/></linearGradient><linearGradient id="gradient_khong_ten_20-2" x1="222.65" y1="372.94" x2="222.65" y2="339.14" xlink:href="#gradient_khong_ten_20"/><linearGradient id="gradient_khong_ten_20-3" x1="222.64" y1="435.88" x2="222.64" y2="402.09" xlink:href="#gradient_khong_ten_20"/><linearGradient id="gradient_khong_ten_20-4" x1="408.15" y1="310.09" x2="408.15" y2="276.3" xlink:href="#gradient_khong_ten_20"/><linearGradient id="gradient_khong_ten_20-5" x1="408.15" y1="373.02" x2="408.15" y2="339.24" xlink:href="#gradient_khong_ten_20"/><linearGradient id="gradient_khong_ten_20-6" x1="408.15" y1="435.96" x2="408.15" y2="402.17" xlink:href="#gradient_khong_ten_20"/></defs><title>02_17 . - 베트남어.pdf(송희).svg222</title><circle class="cls-1" cx="154.47" cy="687.89" r="95.51"/><rect class="cls-2" x="-8.5" y="135.27" width="202.15" height="303.69"/><text class="cls-3" transform="translate(42.12 67.39) scale(0.98 1)">Phương pháp POUR</text><text class="cls-4" transform="translate(213.98 258.27) rotate(-0.24) scale(0.97 1)">Dịch vụ cung cấp phương pháp POUR</text><path class="cls-5" d="M230.09,687.89a75.63,75.63,0,0,0-75.62-75.63v75.63Z"/><path class="cls-6" d="M154.47,763.51a75.62,75.62,0,0,0,75.62-75.62H154.47Z"/><path class="cls-6" d="M154.47,612.26a75.63,75.63,0,0,0-75.63,75.63h75.63Z"/><path class="cls-5" d="M78.84,687.89a75.63,75.63,0,0,0,75.63,75.62V687.89Z"/><text class="cls-7" transform="translate(115.95 644.99) scale(0.97 1)">Chẩn đoán khuyết tật<tspan x="-20.58" y="9">Tính toán diện tích tự động</tspan><tspan x="-13.22" y="18">Hỗ trợ tài liệu thiết kế</tspan><tspan x="-14.78" y="27">Hỗ trợ hành chính, công vụ</tspan></text><text class="cls-7" transform="translate(171.8 644.99) scale(0.97 1)">Công nghệ xây dựng mới<tspan x="0" y="9">Bằng sáng chế kỹ thuật thi công</tspan><tspan class="cls-8"><tspan x="0" y="18">Chẩn đoán khuyết tật AI</tspan><tspan x="0" y="27">Đo độ bám dính AI</tspan></tspan></text><text class="cls-7" transform="translate(103.71 715.18) scale(0.97 1)">Sơn đặc biệt MRO<tspan x="0.79" y="9">Sửa chữa/Cải tạo</tspan><tspan x="-2.59" y="18">Trang trí nhà &amp; Sửa chữa</tspan></text><text class="cls-7" transform="translate(171.8 706.56) scale(0.97 1)">Bảo trì sau công trình<tspan x="0" y="9">Đào tạo &amp; Hướng dẫn</tspan><tspan class="cls-8"><tspan x="0" y="18">Thương mại truyền thông D2C</tspan></tspan><tspan x="0" y="27">Nền tảng dữ liệu</tspan></text><circle class="cls-9" cx="154.47" cy="687.89" r="20.83"/><text class="cls-10" transform="translate(139.98 685.93) scale(0.97 1)">Phương pháp POUR<tspan class="cls-11"><tspan x="0" y="9">Dịch vụ cung cấp</tspan></tspan></text><circle class="cls-12" cx="63.86" cy="630.37" r="19.41"/><text class="cls-13" transform="translate(57.16 628.43) scale(0.97 1)">Thiết kế<tspan x="-10.22" y="9">Kỹ thuật</tspan></text><circle class="cls-12" cx="245.9" cy="630.37" r="19.41"/><text class="cls-13" transform="translate(239.13 626.67) scale(0.97 1)">R&amp;D<tspan x="-14.02" y="9">(CNTT, Thi công, Vật liệu)</tspan></text><circle class="cls-12" cx="245.9" cy="745.92" r="19.41"/><text class="cls-13" transform="translate(235.47 748.05) scale(0.97 1)">Dịch vụ</text><circle class="cls-12" cx="63.86" cy="745.92" r="19.41"/><text class="cls-13" transform="translate(56.2 744.09) scale(0.97 1)">MRO<tspan x="-7.11" y="9">Sản xuất sản phẩm</tspan></text><text class="cls-14" transform="translate(299.47 586.49) rotate(-0.24) scale(0.97 1)">· 국토교통부 주관 박공형 경사지붕 국내 최초 ‘건설신기술’ 공식 인증<tspan x="0" y="21">· ‘제 1026호’ 로 국토교통부 건설신기술로 지정</tspan><tspan x="0" y="42">· Đạt hạng AA trong đánh giá xuất sắc kỹ thuật của Hiệp hội Xúc tiến Phát minh Hàn Quốc</tspan><tspan x="0" y="63">· Đạt giải thưởng Hài lòng Dịch vụ Hàn Quốc</tspan><tspan x="0" y="84">· Đạt giải thưởng lĩnh vực dịch vụ văn hóa nhà ở</tspan><tspan x="0" y="105">· Hơn 50 bằng sáng chế công nghệ được nhà nước chứng nhận</tspan><tspan x="0" y="126">· Hơn 230 doanh nghiệp đối tác thi công ưu tú trên toàn quốc</tspan><tspan x="0" y="147">· Xây dựng mạng lưới R&amp;D tích hợp giáo sư, kỹ sư, kiến trúc sư</tspan><tspan x="0" y="168">· Phương pháp POUR “MMDịch vụ” POUR솔루션 Dịch vụ 운영</tspan><tspan x="0" y="189">· 건축물 유지보수용 Sản phẩm 전문 스토어 “POUR스토어” 운영</tspan><tspan x="0" y="210">· Đang hợp tác nghiên cứu phát triển với giáo sư và nhóm nghiên cứu Đại học Khoa học và Công nghệ Seoul</tspan></text><text class="cls-15" transform="translate(50.89 470.25) rotate(-0.24) scale(0.97 1)">Nội hóa công nghệ AI dựa trên ontology</text><rect class="cls-16" x="43.22" y="237.31" width="5.84" height="15.86"/><rect class="cls-16" x="54.95" y="241.15" width="5.84" height="12.02"/><rect class="cls-16" x="49.06" y="243.7" width="5.89" height="9.48"/><line class="cls-16" x1="44.28" y1="239.27" x2="48" y2="239.27"/><line class="cls-16" x1="44.28" y1="241.31" x2="48" y2="241.31"/><line class="cls-16" x1="44.28" y1="243.34" x2="48" y2="243.34"/><line class="cls-16" x1="44.28" y1="245.38" x2="48" y2="245.38"/><line class="cls-16" x1="44.28" y1="247.42" x2="48" y2="247.42"/><line class="cls-16" x1="44.28" y1="249.45" x2="48" y2="249.45"/><line class="cls-16" x1="49.96" y1="245.24" x2="55.04" y2="245.24"/><line class="cls-16" x1="49.96" y1="247.28" x2="55.04" y2="247.28"/><line class="cls-16" x1="49.96" y1="249.31" x2="55.04" y2="249.31"/><line class="cls-16" x1="59.3" y1="242.34" x2="59.3" y2="251.42"/><line class="cls-16" x1="57.08" y1="242.34" x2="57.08" y2="251.42"/><line class="cls-16" x1="45.96" y1="237.31" x2="45.96" y2="236.31"/><path class="cls-17" d="M46,234.41c.05-.13.57-1.31,2.81-1.31h7.64s1.82.16,1.82,1.32v4.77"/><line class="cls-16" x1="58.24" y1="240.15" x2="58.24" y2="241.15"/><path class="cls-16" d="M49.69,232.35a1.53,1.53,0,0,0-.78,2,1.12,1.12,0,0,0,.72.41c.87.2,1.26-.39,2.17-.36.75,0,.73.43,1.6.58,1.09.18,2.39-.26,2.5-.85.07-.35-.32-.5-.81-1.7-.17-.42-.13-.42-.22-.54-.55-.71-2.22-.77-3.16,0-.43.34-.53.71-1,.77S50.08,232.28,49.69,232.35Z"/><text class="cls-18" transform="translate(67.74 253.03) rotate(-0.24) scale(0.97 1)">70</text><text class="cls-19" transform="translate(68.71 269.28) rotate(-0.24) scale(0.97 1)">Công nghệ bằng sáng chế liên quan đến bảo trì công trình</text><text class="cls-20" transform="translate(120.1 252.21) rotate(-0.24) scale(0.97 1)">hơn +</text><polygon class="cls-16" points="52.4 306.35 43.22 300.46 43.22 310.19 52.4 316.07 61.59 310.19 61.59 300.46 52.4 306.35"/><line class="cls-16" x1="43.22" y1="305.33" x2="52.4" y2="311.21"/><line class="cls-16" x1="61.59" y1="305.33" x2="52.4" y2="311.21"/><line class="cls-16" x1="52.4" y1="306.35" x2="52.4" y2="316.08"/><polyline class="cls-16" points="43.22 300.46 52.4 294.95 61.59 300.46"/><polyline class="cls-16" points="47.81 313.13 47.81 303.4 56.99 297.71"/><polyline class="cls-16" points="56.99 313.13 56.99 303.4 47.81 297.71"/><text class="cls-21" transform="translate(67.23 315.02) rotate(-0.24) scale(0.97 1)">110</text><text class="cls-19" transform="translate(68.2 331.26) rotate(-0.24) scale(0.97 1)">Số lượng sản phẩm bảo trì công trình sở hữu</text><text class="cls-20" transform="translate(119.59 314.19) rotate(-0.24) scale(0.97 1)">hơn +</text><rect class="cls-16" x="55.2" y="369.86" width="6.76" height="18.25"/><rect class="cls-16" x="48.19" y="373.12" width="5.89" height="14.99"/><rect class="cls-16" x="43.22" y="386.23" width="5.51" height="1.88"/><line class="cls-16" x1="50.29" y1="373.12" x2="50.29" y2="388.11"/><line class="cls-16" x1="54.08" y1="376.58" x2="55.2" y2="376.58"/><text class="cls-18" transform="translate(67.74 389) rotate(-0.24) scale(0.97 1)">250</text><text class="cls-19" transform="translate(68.71 405.25) rotate(-0.24) scale(0.97 1)">Đối tác thi công chuyên bảo trì</text><text class="cls-20" transform="translate(120.1 388.18) rotate(-0.24) scale(0.97 1)">hơn +</text><text class="cls-22" transform="translate(246.32 282.95) scale(0.97 1)">Chẩn đoán khuyết tật và cung cấp giải pháp</text><text class="cls-23" transform="translate(246.32 300.36) scale(0.97 1)">Phân tích kỹ lưỡng nguyên nhân khuyết tật cá biệt<tspan x="0" y="11.55">và đề xuất giải pháp theo từng loại khuyết tật.</tspan></text><circle class="cls-24" cx="222.64" cy="293.1" r="16.89"/><line class="cls-25" x1="223.4" y1="292.79" x2="227.26" y2="294.26"/><path class="cls-25" d="M218.51,292.79l-3.87,1.47a3.15,3.15,0,0,0-2,2.94v3.36h11"/><path class="cls-25" d="M218.92,290.67a5,5,0,0,1-.41,2.12l2.44,1.79,2.45-1.79a5.05,5.05,0,0,1-.42-2.12"/><polyline class="cls-25" points="217.37 294.2 218.98 296.33 220.95 294.58 222.93 296.33 224.53 294.2"/><path class="cls-25" d="M221,281.65a4.51,4.51,0,0,0-4.5,4.76,5.53,5.53,0,0,0,.11,1.06,1.21,1.21,0,0,0,.54.91,1.89,1.89,0,0,1,.77.79c.69,1.31,1.81,2.54,3.08,2.54s2.4-1.23,3.08-2.54a2,2,0,0,1,.77-.79,1.22,1.22,0,0,0,.55-.91,5.53,5.53,0,0,0,.11-1.06A4.52,4.52,0,0,0,221,281.65Z"/><path class="cls-25" d="M219.65,284.13s1.15,2.58,4.84,2.19"/><path class="cls-25" d="M219.94,284.6a2.25,2.25,0,0,0-2.06,1.62"/><rect class="cls-25" x="224.82" y="295.64" width="7.84" height="8.91"/><line class="cls-25" x1="226.56" y1="299.85" x2="230.91" y2="299.85"/><line class="cls-25" x1="226.56" y1="301.78" x2="230.91" y2="301.78"/><circle class="cls-26" cx="222.65" cy="356.04" r="16.9"/><path class="cls-25" d="M216.75,345.78a3.52,3.52,0,0,1-3.21,3.66"/><path class="cls-25" d="M213.53,362.31a3.51,3.51,0,0,1,3.22,3.51"/><path class="cls-25" d="M223.13,349.44a3.51,3.51,0,0,1-3.34-3.66"/><path class="cls-25" d="M219.79,365.82a3.5,3.5,0,0,1,3.34-3.51"/><polyline class="cls-25" points="223.16 357.22 223.16 365.82 213.5 365.82 213.5 345.74 223.16 345.74 223.16 354.07"/><path class="cls-25" d="M220.86,357.41a3.2,3.2,0,0,1-2.53,1.2,2.84,2.84,0,1,1,0-5.66,3.35,3.35,0,0,1,1.88.58"/><rect class="cls-25" x="218.28" y="350.43" width="0.09" height="0.1"/><rect class="cls-25" x="218.28" y="361.03" width="0.09" height="0.1"/><path class="cls-25" d="M223.89,350.51l1.87-.08A1.53,1.53,0,0,1,227,351l5.69,6.24"/><path class="cls-25" d="M223.89,361.75a3,3,0,0,0,.41.17c1.36.41,2.09-.08,2.49.36l.63.69"/><path class="cls-25" d="M225.69,354.07H221a1.07,1.07,0,0,0-.83,1.62,1.3,1.3,0,0,0,.15.2,4,4,0,0,0,1.34,1,2.92,2.92,0,0,0,.49.19,4,4,0,0,0,1.1.16h1.5l1,1.1a2.63,2.63,0,0,0,1.94.88"/><path class="cls-25" d="M229,366.34l6.63-7.26h0a3.12,3.12,0,0,0-4.71,0L229,361.19a3.89,3.89,0,0,0,0,5.15Z"/><text class="cls-27" transform="translate(246.32 345.86) scale(0.97 1)">Cung cấp dữ liệu kỹ thuật, R&D</text><text class="cls-28" transform="translate(246.32 363.27) scale(0.97 1)">Cùng với năng lực kỹ thuật của chuyên gia và nhóm nghiên cứu <tspan class="cls-29" x="100.66" y="0">POUR </tspan><tspan class="cls-30"><tspan x="0" y="11.55">phương pháp cung cấp tất cả.</tspan></tspan></text><circle class="cls-31" cx="222.64" cy="418.98" r="16.89"/><line class="cls-25" x1="219.87" y1="412.56" x2="219.87" y2="412.56"/><line class="cls-25" x1="222.64" y1="412.56" x2="222.64" y2="412.56"/><line class="cls-25" x1="225.42" y1="412.56" x2="225.42" y2="412.56"/><path class="cls-25" d="M230.8,408.53H214.48a1.92,1.92,0,0,0-1.86,2v4.11a1.91,1.91,0,0,0,1.86,2h2.72v2.33l2.26-2.33H221l1.61,2.67,1.61-2.67h1.57l2.26,2.33v-2.33h2.72a1.92,1.92,0,0,0,1.87-2v-4.11A1.93,1.93,0,0,0,230.8,408.53Z"/><path class="cls-25" d="M226.29,429.43V428a1.92,1.92,0,0,0-1.92-1.91h-3.46A1.91,1.91,0,0,0,219,428v1.43"/><path class="cls-25" d="M220.82,422.82a1.83,1.83,0,1,0,1.82-2A1.9,1.9,0,0,0,220.82,422.82Z"/><path class="cls-25" d="M226.49,426.05a1.91,1.91,0,0,1,1.47-.69h3.47a1.92,1.92,0,0,1,1.91,1.92v1.42"/><path class="cls-25" d="M227.87,422.09a1.83,1.83,0,1,0,1.82-2A1.9,1.9,0,0,0,227.87,422.09Z"/><path class="cls-25" d="M211.94,428.7v-1.42a1.92,1.92,0,0,1,1.92-1.92h3.46a1.91,1.91,0,0,1,1.47.69"/><path class="cls-25" d="M213.77,422.09a1.83,1.83,0,1,0,1.82-2A1.9,1.9,0,0,0,213.77,422.09Z"/><text class="cls-27" transform="translate(246.32 408.76) scale(0.97 1)">Đào tạo và bồi dưỡng nhân lực chuyên môn</text><text class="cls-32" transform="translate(246.32 426.18) scale(0.97 1)">Nâng cao nội hóa kỹ thuật và khả năng sử dụng phương pháp, cuối cùng <tspan x="0" y="11.55">nâng cao năng lực cạnh tranh kỹ thuật.</tspan></text><circle class="cls-33" cx="408.15" cy="293.2" r="16.89"/><path class="cls-25" d="M402.76,289.69a6.43,6.43,0,0,0,8.9,8.89"/><path class="cls-25" d="M404.64,287.81a6.43,6.43,0,0,1,8.9,8.89"/><path class="cls-25" d="M418.63,295a10.55,10.55,0,0,0,0-3.59l-2.21-.42a7,7,0,0,0-.36-1.06,8.57,8.57,0,0,0-.49-1l1.26-1.86a10.66,10.66,0,0,0-2.53-2.53l-1.87,1.26a8.16,8.16,0,0,0-2.07-.86l-.42-2.21a10.5,10.5,0,0,0-3.58,0l-.43,2.21a8.83,8.83,0,0,0-1.06.36,7.3,7.3,0,0,0-1,.5L402,284.52a10.31,10.31,0,0,0-2.53,2.53l1.26,1.86a9.14,9.14,0,0,0-.86,2.07l-2.21.42a10.81,10.81,0,0,0,0,3.59l2.21.42a10.17,10.17,0,0,0,.36,1.06,9.49,9.49,0,0,0,.5,1l-1.26,1.86a10.52,10.52,0,0,0,2.53,2.54l1.86-1.27a8.32,8.32,0,0,0,2.07.86l.43,2.21a10.5,10.5,0,0,0,3.58,0l.42-2.21a8.41,8.41,0,0,0,1.07-.36,7.18,7.18,0,0,0,1-.5l1.87,1.27a10.89,10.89,0,0,0,2.53-2.54l-1.26-1.86a8.51,8.51,0,0,0,.85-2.07Z"/><polyline class="cls-25" points="412.17 293.53 412.17 296.73 404.13 296.73 404.13 293.53"/><path class="cls-25" d="M407.28,294.41h-1.43a2.11,2.11,0,0,1-2.12-2.1v-2h8.84v2a2.11,2.11,0,0,1-2.12,2.1H409"/><rect class="cls-25" x="407.28" y="293.36" width="1.74" height="2.12" rx="0.87"/><path class="cls-25" d="M406.64,290.26v-.53a1,1,0,0,1,1.05-1h.92a1,1,0,0,1,1,1v.53"/><text class="cls-27" transform="translate(431.83 282.95) scale(0.97 1)">Hỗ trợ thiết kế công trình &amp; dịch vụ giám sát</text><text class="cls-23" transform="translate(431.83 300.36) scale(0.97 1)">Từ thiết kế công trình đến kiểm tra vật liệu, báo cáo hiện trường hàng ngày,<tspan x="0" y="11.55">hỗ trợ cả dịch vụ giám sát như kiểm tra định kỳ.</tspan></text><circle class="cls-34" cx="408.15" cy="356.13" r="16.89"/><polyline class="cls-25" points="405.63 360.91 418.68 360.91 418.79 348.31 405.63 348.31"/><line class="cls-25" x1="411.13" y1="362.93" x2="408.31" y2="365.56"/><line class="cls-25" x1="411.21" y1="362.93" x2="414.04" y2="365.56"/><line class="cls-25" x1="411.17" y1="360.91" x2="411.17" y2="365.56"/><polyline class="cls-25" points="416.06 354.86 416.06 351.48 412.69 351.48"/><polyline class="cls-25" points="416 351.59 411.45 356.13 407.78 356.13 405.93 357.98"/><path class="cls-25" d="M400,348.67a1.82,1.82,0,1,0,1.82-2A1.9,1.9,0,0,0,400,348.67Z"/><path class="cls-25" d="M399.35,360.07h-.5a1.34,1.34,0,0,1-1.34-1.35V354a2.17,2.17,0,0,1,2.16-2.17h9.95l0,.34a2,2,0,0,1-1.83,1.73l-3.49.29V360l-.28,5.55"/><line class="cls-25" x1="401.81" y1="361.14" x2="401.81" y2="365.56"/><polyline class="cls-25" points="399.35 354.46 399.35 360.01 399.63 365.56"/><text class="cls-27" transform="translate(431.83 345.86) scale(0.97 1)">Đào tạo kỹ thuật và tổ chức hội thảo</text><text class="cls-23" transform="translate(431.83 363.27) scale(0.97 1)">Nghiên cứu viên chuyên môn hiện trường độc lập<tspan x="0" y="11.55">tổ chức đào tạo kỹ thuật và hội thảo cho căn hộ.</tspan></text><circle class="cls-35" cx="408.15" cy="419.06" r="16.89"/><path class="cls-25" d="M399.43,411.85a2.16,2.16,0,1,1,3.51-2.53,2.19,2.19,0,1,1-3.51,2.53Z"/><path class="cls-25" d="M407.54,429.7l-1.47-4.79h-5.19a2,2,0,0,1-2-2v-6.67a1.94,1.94,0,0,1,1.94-1.94,2.27,2.27,0,0,1,1.39.48A2.2,2.2,0,0,1,403,416l.8,3.11,2.36,0a1.48,1.48,0,0,1,1.48,1.48v.57"/><path class="cls-25" d="M417.4,429.7v-8.49H403.26a1.52,1.52,0,0,1-1.48-1.15l-.86-3.36"/><polygon class="cls-25" points="407.4 418.31 416.04 418.31 417.4 411.15 408.76 411.15 407.4 418.31"/><line class="cls-25" x1="412.75" y1="420.25" x2="412.2" y2="418.31"/><path class="cls-25" d="M402.33,422.39h4.09a1.85,1.85,0,0,1,1.78,1.37l1.59,5.94"/><text class="cls-27" transform="translate(431.83 408.76) scale(0.97 1)">Hỗ trợ công việc hành chính thiết kế</text><text class="cls-23" transform="translate(431.83 426.18) scale(0.97 1)">Tất cả những gì cần thiết cho công việc hành chính<tspan x="0" y="11.55">được chuyên viên hỗ trợ một cửa.</tspan></text><text class="cls-36" transform="translate(567.81 742.28) rotate(90) scale(0.98 1)">Giới thiệu phương pháp POUR|</text><text class="cls-37" transform="translate(566.52 810.11) scale(0.85 1)">03</text><rect class="cls-16" x="54.13" y="171.93" width="7.54" height="12.84"/><rect class="cls-16" x="43.32" y="178.75" width="12.77" height="12.84"/><line class="cls-16" x1="61.68" y1="191.59" x2="55.8" y2="191.59"/><line class="cls-16" x1="59.23" y1="184.77" x2="59.23" y2="191.59"/><line class="cls-16" x1="55.8" y1="174.74" x2="59.77" y2="174.74"/><line class="cls-16" x1="55.8" y1="176.74" x2="59.77" y2="176.74"/><rect class="cls-16" x="45.52" y="180.49" width="2.61" height="3.4"/><rect class="cls-16" x="50.02" y="180.49" width="2.97" height="3.48"/><rect class="cls-16" x="50.02" y="186.22" width="2.97" height="2.68"/><rect class="cls-16" x="45.52" y="186.22" width="2.61" height="5.37"/><text class="cls-18" transform="translate(67.55 191.05) rotate(-0.24) scale(0.97 1)">260</text><text class="cls-19" transform="translate(68.52 207.29) rotate(-0.24) scale(0.97 1)">Số căn hộ thi công tích lũy</text><text class="cls-20" transform="translate(115.04 190.24) rotate(-0.24) scale(0.97 1)">vạn căn +</text><text class="cls-38" transform="translate(282.03 204.54) scale(0.97 1)">Đề xuất phương pháp và hướng đi cho công trình bảo trì tòa nhà thành công <tspan class="cls-39"><tspan x="0" y="17">cung cấp dịch vụ và kỹ thuật tốt nhất cho việc vận hành doanh nghiệp thuận lợi.</tspan></tspan></text><path class="cls-40" d="M213.26,211.16v.39c0,2.15,0,4.89,0,7,0,.24-.06.33-.36.32h-3.53l-.34,0V199.76l.25,0h5.8a7.81,7.81,0,0,1,3,.54,4.49,4.49,0,0,1,3,3.44,22.3,22.3,0,0,1,0,3.37,5,5,0,0,1-4.29,3.89,14.9,14.9,0,0,1-1.9.17C214.34,211.18,213.82,211.16,213.26,211.16Zm0-5.61c0,.86,0,1.72,0,2.58,0,.53-.07.46.65.46h1.24c1.49.06,2.21-.58,2.29-1.54a20.45,20.45,0,0,0-.06-3.13c-.06-.88-.88-1.39-2.08-1.4-.53,0-1.05,0-1.57,0-.36,0-.49.06-.48.34C213.28,203.75,213.27,204.65,213.27,205.55Z"/><path class="cls-40" d="M267.81,219l-4.35-8.25a5.67,5.67,0,0,0,3.49-5.35v-.26a6.12,6.12,0,0,0-.56-2.3,5.74,5.74,0,0,0-1.32-1.8,5.08,5.08,0,0,0-1.89-1.1,9.39,9.39,0,0,0-2.64-.24h-6.08l-.25,0v19.13h4.13v-7.57h.49a3.49,3.49,0,0,1,.77,0l4,7.68Zm-9.45-10.72v-5.83c1.1,0,2.18,0,3.25,0a1.47,1.47,0,0,1,1.38,1.23,29.71,29.71,0,0,1,0,3.13,1.94,1.94,0,0,1-.64,1,1.54,1.54,0,0,1-.93.38C260.4,208.35,259.4,208.32,258.36,208.32Z"/><path class="cls-40" d="M235.63,215.08c-.06-1.89,0-3.79,0-5.68s0-3.88,0-5.82a3.43,3.43,0,0,0-2.47-3.34,9.21,9.21,0,0,0-7.14.07,3.35,3.35,0,0,0-2.32,3.1c0,1.31,0,2.63,0,4,0,2.61,0,5.21,0,7.81a3.53,3.53,0,0,0,2.64,3.44,9.67,9.67,0,0,0,5.83.28C234,218.46,235.71,217.25,235.63,215.08Zm-3.86-.41a2.1,2.1,0,0,1-2.11,2.09h0a2.09,2.09,0,0,1-2.11-2.09V204.43a2.1,2.1,0,0,1,2.11-2.09h0a2.11,2.11,0,0,1,2.11,2.09Z"/><path class="cls-40" d="M251,200.09v-.33h-4v14.87a2.11,2.11,0,0,1-2.11,2.11h0a2.1,2.1,0,0,1-2.11-2.11V199.75h-4v15.42c0,1.6.91,2.75,2.68,3.42a10.12,10.12,0,0,0,6.09.29c1.9-.46,3.57-1.71,3.55-3.82C251,210.07,251,205.08,251,200.09Z"/><polygon class="cls-40" points="228.86 189.83 228.86 191.92 228.86 199.56 232.2 199.56 232.2 191.92 233.87 191.92 233.87 199.56 237.21 199.56 237.21 191.92 237.21 189.83 237.21 188.94 228.86 188.94 228.86 189.83"/><polygon class="cls-40" points="218.88 178.57 218.88 180.85 218.88 196.57 205.13 196.57 205.13 199.56 218.88 199.56 222.22 199.56 222.22 196.57 222.22 180.85 223.89 180.85 223.89 199.56 227.23 199.56 227.23 180.85 227.23 178.57 227.23 177.87 218.88 177.87 218.88 178.57"/><polygon class="cls-40" points="238.89 175.47 238.89 176.77 238.89 199.56 242.22 199.56 242.22 176.77 243.9 176.77 243.9 199.56 247.24 199.56 247.24 176.77 247.24 175.47 247.24 173.79 238.89 173.79 238.89 175.47"/><polygon class="cls-40" points="257.14 196.57 257.14 187.94 257.14 186.36 257.14 184.96 248.79 184.96 248.79 186.36 248.79 187.94 248.79 199.56 252.13 199.56 252.13 187.94 253.8 187.94 253.8 196.57 253.8 199.56 257.14 199.56 270.63 199.56 270.63 196.57 257.14 196.57"/><text class="cls-41" transform="translate(282.03 183.98) scale(0.97 1)">Hệ thống bảo trì công trình bền vững</text><rect class="cls-42" x="205.75" y="136.85" width="346.72" height="24.86"/><text class="cls-43" transform="translate(297.22 154.97) rotate(-0.24) scale(0.97 1)">ALL-IN ONE Solution</text><rect class="cls-2" x="205.75" y="250.81" width="6.24" height="6.24"/><rect class="cls-2" x="42.66" y="462.78" width="6.24" height="6.24"/><text class="cls-44" transform="translate(43.31 484.48) scale(0.97 1)">Đang phát triển hệ thống trí tuệ nhân tạo có thể suy luận và phân tích dựa trên cấu trúc ontology của dữ liệu trường hợp khuyết tật và giải pháp trong thị trường MRO công trình.</text><path class="cls-45" d="M150.69,493.89h-108v54.44H150.69c3.45,0,6.24-9.53,6.24-21.28V515.17C156.93,503.42,154.14,493.89,150.69,493.89Z"/><rect class="cls-2" x="42.64" y="493.89" width="3.2" height="54.44"/><text class="cls-46" transform="translate(52.01 528.21) scale(0.99 1)">ETRI x Netform R&D<tspan x="0" y="13">Công nghệ A.I độ bám dính</tspan></text><text class="cls-47" transform="translate(52.01 509.15) scale(0.99 1)">1.</text><path class="cls-45" d="M282.54,493.89h-108v54.44H282.54c3.45,0,6.24-9.53,6.24-21.28V515.17C288.78,503.42,286,493.89,282.54,493.89Z"/><rect class="cls-2" x="174.49" y="493.89" width="3.2" height="54.44"/><text class="cls-46" transform="translate(183.86 528.21) scale(0.99 1)">Startup x Startup chẩn đoán A.I <tspan x="0" y="13">và hợp tác công nghệ giải pháp</tspan></text><text class="cls-47" transform="translate(183.86 509.15) scale(0.99 1)">2.</text><path class="cls-45" d="M414.39,493.89h-108v54.44H414.39c3.44,0,6.24-9.53,6.24-21.28V515.17C420.63,503.42,417.83,493.89,414.39,493.89Z"/><rect class="cls-2" x="306.34" y="493.89" width="3.2" height="54.44"/><text class="cls-46" transform="translate(315.7 528.21) scale(0.99 1)">Chẩn đoán vết nứt sử dụng drone <tspan x="0" y="13">Giải pháp A.I</tspan></text><text class="cls-47" transform="translate(315.7 509.15) scale(0.99 1)">3.</text><path class="cls-45" d="M546.24,493.89H438.18v54.44H546.24c3.44,0,6.23-9.53,6.23-21.28V515.17C552.47,503.42,549.68,493.89,546.24,493.89Z"/><rect class="cls-2" x="438.18" y="493.89" width="3.2" height="54.44"/><text class="cls-46" transform="translate(447.55 528.21) scale(0.99 1)">Sử dụng A.I agent toàn doanh nghiệp, <tspan x="0" y="13">Hiệu quả hóa tổ chức hệ thống tự động</tspan></text><text class="cls-47" transform="translate(447.55 509.15) scale(0.99 1)">4.</text></svg>